# xmcd
#
# Track frame offsets:
#   150
#   18575
#   32503
#   53822
#   62967
#   76404
#   89556
#   104532
#   119732
#   141227
#   155969
#   177778
#   206276
#   221956
#   232268
#   258532
#   266418
#   284785
#   296263
#   311116
#   325795
#
# Disc length: 4484 seconds
#
# Revision: 0
# Processed by: cddbd v1.5.2PL0 Copyright (c) Steve Scherf et al.
# Submitted via: uFREEDB ActiveX Control 1.5
#
DISCID=51118215
DTITLE=Rock Dançante - Rock Dançante
DYEAR=1900
DGENRE=Rock Dançante
TTITLE0=Walk Of Life...Dire Straitz
TTITLE1=Oh Carol...Andrew Sixty
TTITLE2=Games People Play...Tina Washinton
TTITLE3=Come On Lets Go...Los Lobos
TTITLE4=Rock And Roll Music...Mental As Anything
TTITLE5=La Bamba...Los Lobos
TTITLE6=Bigin Japan...Alphabille
TTITLE7=Words...Fr David
TTITLE8=Touck By Touck...Joy
TTITLE9=I Want To Break Free...Queen
TTITLE10=Gloria...Laura Branigan
TTITLE11=Never Ending Story...Obssesion
TTITLE12=Electricity...The Cards
TTITLE13=Bad Moor Rising...Gredence
TTITLE14=Another Brick In The Wall...Pink Floid
TTITLE15=O Oh! My Head...Los Lobos
TTITLE16=The Girls Of Lucifer.
TTITLE17=Boys Dont Cry...The Cure
TTITLE18=Rendez Uous...Jean Michal Jarre
TTITLE19=Rivers Of Babylone...Boney M.2000
TTITLE20=Brown Girl In The Ring...Boney M.2000
EXTD=
EXTT0=
EXTT1=
EXTT2=
EXTT3=
EXTT4=
EXTT5=
EXTT6=
EXTT7=
EXTT8=
EXTT9=
EXTT10=
EXTT11=
EXTT12=
EXTT13=
EXTT14=
EXTT15=
EXTT16=
EXTT17=
EXTT18=
EXTT19=
EXTT20=
PLAYORDER=
